<?xml version="1.0" encoding="utf-8"?>
<!-- Generator: Adobe Illustrator 23.0.5, SVG Export Plug-In . SVG Version: 6.00 Build 0)  -->
<svg version="1.1" id="Calque_1" xmlns="http://www.w3.org/2000/svg" xmlns:xlink="http://www.w3.org/1999/xlink" x="0px" y="0px"
	 viewBox="0 0 98.1 87.7" style="enable-background:new 0 0 98.1 87.7;" xml:space="preserve">
<style type="text/css">
	.st0{fill:none;stroke:#C3D3F4;stroke-width:2;stroke-linecap:round;stroke-linejoin:round;}
</style>
<title>planete</title>
<path class="st0" d="M29.2,6.3c14.8-2,27.2-3.4,43.6-4.8"/>
<path class="st0" d="M27.5,83.8c0.4-3.7,0.3-6.1,0.7-11.8"/>
<path class="st0" d="M81.9,37.2c6.4,2,7.7,4.8,14.2,6.3"/>
<path class="st0" d="M1.4,42.7c10-12.4,19.1-25.1,26.9-31.6"/>
<path class="st0" d="M1.4,42.7C11.9,27.1,16.7,19.7,29.2,6.3"/>
<path class="st0" d="M28.2,71.9c38.2-8.7,32.7-27.6,53.7-34.7"/>
<path class="st0" d="M27.5,83.8c15.4,0.6,30.7,1.4,46.2,2.1"/>
<path class="st0" d="M72.7,1.5c8.2,14.5,15.8,26.1,23.4,42"/>
<path class="st0" d="M28.2,71.9c2.1-17.9-11.3-28.4,0.2-60.8"/>
<path class="st0" d="M73.7,85.8c1.6-14.8,9.6-24.3,8.2-48.6"/>
<path class="st0" d="M27.5,83.8C23,76,10.8,61.6,1.4,42.7"/>
<path class="st0" d="M28.4,11.2c0.4-1.6,0.7-3.2,0.8-4.9"/>
<path class="st0" d="M1.4,42.7c10.6,13,17.8,22.7,26.8,29.2"/>
<path class="st0" d="M73.7,85.8c7.6-14,16-27.2,22.4-42.3"/>
<path class="st0" d="M81.9,37.2C79,26.3,76.1,18.5,72.7,1.5"/>
<path class="st0" d="M28.2,71.9c16.4,5.9,29.6,8,45.5,13.9"/>
<path class="st0" d="M28.4,11.2c17.8,12,35.4,9.6,53.6,26.1"/>
<path class="st0" d="M28.4,11.2c9.5-4.4,28.9-5.7,44.4-9.7"/>
</svg>
